<svg xmlns="http://www.w3.org/2000/svg" viewBox="0 0 760 168" fill="none">
  <defs>
    <linearGradient id="hyperpulse-outline" x1="28" y1="26" x2="136" y2="142" gradientUnits="userSpaceOnUse">
      <stop stop-color="#B3FFF3" />
      <stop offset="1" stop-color="#2EF5CF" />
    </linearGradient>
    <linearGradient id="hyperpulse-pulse" x1="34" y1="84" x2="130" y2="84" gradientUnits="userSpaceOnUse">
      <stop stop-color="#90FFF0" />
      <stop offset="0.5" stop-color="#38F5D3" />
      <stop offset="1" stop-color="#64FFE4" />
    </linearGradient>
    <radialGradient id="hyperpulse-fill" cx="0" cy="0" r="1" gradientUnits="userSpaceOnUse" gradientTransform="translate(82 84) rotate(90) scale(58 60)">
      <stop stop-color="#182028" />
      <stop offset="1" stop-color="#080B0F" />
    </radialGradient>
  </defs>
  <path
    d="M28 84C28 57.55 41.148 36 62.5 36C76.334 36 84.816 50.01 88.5 67.372C92.184 50.01 100.666 36 114.5 36C135.852 36 149 57.55 149 84C149 110.45 135.852 132 114.5 132C100.666 132 92.184 117.99 88.5 100.628C84.816 117.99 76.334 132 62.5 132C41.148 132 28 110.45 28 84Z"
    fill="url(#hyperpulse-fill)"
    stroke="url(#hyperpulse-outline)"
    stroke-width="4"
  />
  <path
    d="M34 84H69L77 73L85 96L93 54L103 110L111 77L120 84H130"
    stroke="url(#hyperpulse-pulse)"
    stroke-width="10"
    stroke-linecap="round"
    stroke-linejoin="round"
  />
  <text
    x="186"
    y="98"
    fill="#F6F7FB"
    font-family="Arial, Helvetica, sans-serif"
    font-size="60"
    font-weight="700"
    letter-spacing="0.12em"
  >
    HYPER
  </text>
  <text
    x="470"
    y="98"
    fill="#38F5D3"
    font-family="Arial, Helvetica, sans-serif"
    font-size="60"
    font-weight="700"
    letter-spacing="0.12em"
  >
    PULSE
  </text>
</svg>
